# xmcd
#
# Track frame offsets: 
#        150
#        16581
#        33034
#        51148
#        67446
#        83976
#        98933
#        113743
#        132263
#        147023
#        162026
#
# Disc length: 2370 seconds
#
# Revision: 0
# Processed by: cddbd v1.5.1PL2 Copyright (c) Steve Scherf et al.
# Submitted via: ExactAudioCopy v0.95a5
#
DISCID=8909400b
DTITLE=MW - Changing The World
DYEAR=2005
DGENRE=Latin
TTITLE0=Esclavos Del Amor
TTITLE1=Making Love
TTITLE2=Llamame
TTITLE3=Traicion
TTITLE4=Amor De Colegio
TTITLE5=Dangerously In Love
TTITLE6=Pensando En Ti
TTITLE7=Talisman
TTITLE8=Donde Estara Mi Primavera
TTITLE9=Inmigrante
TTITLE10=Vivos Recuerdos
EXTD=
EXTT0=
EXTT1=
EXTT2=
EXTT3=
EXTT4=
EXTT5=
EXTT6=
EXTT7=
EXTT8=
EXTT9=
EXTT10=
PLAYORDER=
